<?xml version="1.0" encoding="iso-8859-1"?>
<!-- Generator: Adobe Illustrator 16.0.0, SVG Export Plug-In . SVG Version: 6.00 Build 0)  -->
<!DOCTYPE svg PUBLIC "-//W3C//DTD SVG 1.1//EN" "http://www.w3.org/Graphics/SVG/1.1/DTD/svg11.dtd">
<svg version="1.1" id="Capa_1" xmlns="http://www.w3.org/2000/svg" xmlns:xlink="http://www.w3.org/1999/xlink" x="0px" y="0px"
	 width="117.682px" height="117.682px" viewBox="0 0 117.682 117.682" style="enable-background:new 0 0 117.682 117.682;"
	 xml:space="preserve">
<g>
	<g>
		<path d="M85.465,112.026c-1.138-0.27-2.433-0.823-4.012-2.037v7.693h9.623v-6.596c-1.143,0.746-2.442,1.157-3.813,1.157
			C86.673,112.244,86.074,112.172,85.465,112.026z"/>
	</g>
	<g>
		<path d="M96.824,62.139c20.403,10.354,16.636-7.576,16.636-7.576S119.736,6.906,65.757,0C8.33,1.881,15.234,50.526,15.234,50.526
			L4.248,60.255c0,0-1.358,2.224,1.569,1.884c0,0,13.495-1.254,21.653-4.707C35.635,53.974,76.426,51.78,96.824,62.139z
			 M107.96,57.199c1.285,0,2.326,1.041,2.326,2.325c0,1.282-1.041,2.323-2.326,2.323c-1.284,0-2.325-1.041-2.325-2.323
			C105.635,58.24,106.676,57.199,107.96,57.199z M55.238,45.9c1.282,0,2.323,1.039,2.323,2.323s-1.041,2.326-2.323,2.326
			c-1.285,0-2.326-1.041-2.326-2.326S53.953,45.9,55.238,45.9z"/>
		<path d="M102.232,66.603c-5.418,13.553-11.954,27.456-15.768,32.316c-5.098-4.53-15.96-23.228-25.087-41.711
			c-3.862-0.155-7.637-0.167-11.194-0.073c2.115,4.369,6.693,13.642,11.844,22.975c13.378,24.232,19.228,28.463,23.179,29.402
			c0.604,0.146,1.203,0.213,1.792,0.213c1.564,0,3.047-0.503,4.301-1.473c2.448-1.904,6.673-6.622,15.006-25.471
			c3.474-7.851,6.317-15.138,7.444-18.058C112.398,67.411,109.245,69.167,102.232,66.603z M86.933,106.475
			c-1.285,0-2.326-1.036-2.326-2.32c0-1.285,1.041-2.326,2.326-2.326c1.284,0,2.325,1.041,2.325,2.326
			C89.258,105.439,88.217,106.475,86.933,106.475z"/>
	</g>
</g>
<g>
</g>
<g>
</g>
<g>
</g>
<g>
</g>
<g>
</g>
<g>
</g>
<g>
</g>
<g>
</g>
<g>
</g>
<g>
</g>
<g>
</g>
<g>
</g>
<g>
</g>
<g>
</g>
<g>
</g>
</svg>
